<svg width="43" height="6" viewBox="0 0 43 6" fill="none" xmlns="http://www.w3.org/2000/svg">
<path d="M0.250244 0.66217H4.9201C6.3932 0.66217 7.12975 1.14814 7.12975 2.12008V4.56511C7.12975 5.52946 6.3932 6.00783 4.9201 6.00783H0.250244V0.66217ZM4.9201 5.21813C5.7174 5.21813 6.11984 4.99793 6.11984 4.56511V2.12008C6.11984 1.67208 5.7174 1.45187 4.9201 1.45187H1.26015V5.21813H4.9201Z" fill="#EEE924"/>
<path d="M12.5893 5.21807C13.1892 5.21807 13.4853 5.02824 13.4853 4.64098V0.662109H14.4952V4.64098C14.4952 5.55217 13.8574 6.00777 12.5893 6.00777H9.74942C8.48134 6.00777 7.84351 5.54458 7.84351 4.6258V0.662109H8.85341V4.6258C8.85341 5.02065 9.14955 5.21807 9.74942 5.21807H12.5893Z" fill="#EEE924"/>
<path d="M15.2469 6.00777V0.662109H19.4005C20.6685 0.662109 21.3064 1.04937 21.3064 1.81629V2.87934C21.3064 3.64626 20.6685 4.03352 19.4005 4.03352H16.2569V6.00777H15.2469ZM16.2569 1.45181V3.24382H19.4005C20.0003 3.24382 20.2965 3.12233 20.2965 2.87934V1.81629C20.2965 1.5733 20.0003 1.45181 19.4005 1.45181H16.2569Z" fill="#EEE924"/>
<path d="M21.6936 0.662109H26.3635C27.8366 0.662109 28.5731 1.14808 28.5731 2.12002V4.56505C28.5731 5.52939 27.8366 6.00777 26.3635 6.00777H21.6936V0.662109ZM26.3635 5.21807C27.1608 5.21807 27.5632 4.99787 27.5632 4.56505V2.12002C27.5632 1.67201 27.1608 1.45181 26.3635 1.45181H22.7035V5.21807H26.3635Z" fill="#EEE924"/>
<path d="M34.0327 5.21807C34.6325 5.21807 34.9287 5.02824 34.9287 4.64098V0.662109H35.9386V4.64098C35.9386 5.55217 35.3007 6.00777 34.0327 6.00777H31.1928C29.9247 6.00777 29.2869 5.54458 29.2869 4.6258V0.662109H30.2968V4.6258C30.2968 5.02065 30.5929 5.21807 31.1928 5.21807H34.0327Z" fill="#EEE924"/>
<path d="M36.6903 6.00777V0.662109H40.8438C42.1119 0.662109 42.7497 1.04937 42.7497 1.81629V2.87934C42.7497 3.64626 42.1119 4.03352 40.8438 4.03352H37.7002V6.00777H36.6903ZM37.7002 1.45181V3.24382H40.8438C41.4437 3.24382 41.7398 3.12233 41.7398 2.87934V1.81629C41.7398 1.5733 41.4437 1.45181 40.8438 1.45181H37.7002Z" fill="#EEE924"/>
</svg>
