<svg width="14" height="14" viewBox="0 0 14 14" fill="none" xmlns="http://www.w3.org/2000/svg">
<path d="M9.51189 4.12777L7.34524 4.11858L7.34065 5.20191L9.5073 5.21109C10.401 5.21488 11.1292 5.94922 11.1254 6.84297C11.1216 7.73671 10.3873 8.46485 9.49352 8.46106L7.32687 8.45188L7.32228 9.5352L9.48893 9.54439C10.9839 9.55072 12.2024 8.34254 12.2087 6.84756C12.2151 5.35257 11.0069 4.13411 9.51189 4.12777ZM6.24355 8.44728L4.0769 8.4381C3.18316 8.43431 2.45502 7.69997 2.4588 6.80622C2.46259 5.91248 3.19694 5.18434 4.09068 5.18813L6.25733 5.19731L6.26192 4.11399L4.09527 4.1048C2.60029 4.09847 1.38182 5.30665 1.37548 6.80163C1.36914 8.29662 2.57732 9.51508 4.07231 9.52142L6.23896 9.53061L6.24355 8.44728ZM4.62775 6.27375L8.96104 6.29212L8.95645 7.37544L4.62316 7.35707L4.62775 6.27375Z" fill="#B8B8B8"/>
</svg>
