<svg width="80" height="10" viewBox="0 0 80 10" fill="none" xmlns="http://www.w3.org/2000/svg">
<path d="M6.7776 5.91837L0.453857 0.0703125H2.83226L7.70098 4.57528L12.5697 0.0703125H14.9201L8.63834 5.91837V9.91968H6.7776V5.91837Z" fill="#EEE924"/>
<path d="M24.1257 8.46466C25.231 8.46466 25.7766 8.11489 25.7766 7.40137V0.0703125H27.6373V7.40137C27.6373 9.08024 26.4621 9.91968 24.1257 9.91968H18.8932C16.5568 9.91968 15.3816 9.06625 15.3816 7.37339V0.0703125H17.2423V7.37339C17.2423 8.1009 17.788 8.46466 18.8932 8.46466H24.1257Z" fill="#EEE924"/>
<path d="M29.0225 9.91968V0.0703125H36.6753C39.0117 0.0703125 40.1869 0.783832 40.1869 2.19688V4.15556C40.1869 5.56861 39.0117 6.28213 36.6753 6.28213H30.8832V9.91968H29.0225ZM30.8832 1.52533V4.82711H36.6753C37.7806 4.82711 38.3262 4.60326 38.3262 4.15556V2.19688C38.3262 1.74918 37.7806 1.52533 36.6753 1.52533H30.8832Z" fill="#EEE924"/>
<path d="M46.3149 5.91837L39.9912 0.0703125H42.3696L47.2383 4.57528L52.107 0.0703125H54.4575L48.1757 5.91837V9.91968H46.3149V5.91837Z" fill="#EEE924"/>
<path d="M63.6633 8.46466C64.7686 8.46466 65.3142 8.11489 65.3142 7.40137V0.0703125H67.1749V7.40137C67.1749 9.08024 65.9997 9.91968 63.6633 9.91968H58.4308C56.0944 9.91968 54.9192 9.06625 54.9192 7.37339V0.0703125H56.7799V7.37339C56.7799 8.1009 57.3256 8.46466 58.4308 8.46466H63.6633Z" fill="#EEE924"/>
<path d="M68.5598 9.91968V0.0703125H76.2127C78.5491 0.0703125 79.7243 0.783832 79.7243 2.19688V4.15556C79.7243 5.56861 78.5491 6.28213 76.2127 6.28213H70.4206V9.91968H68.5598ZM70.4206 1.52533V4.82711H76.2127C77.3179 4.82711 77.8635 4.60326 77.8635 4.15556V2.19688C77.8635 1.74918 77.3179 1.52533 76.2127 1.52533H70.4206Z" fill="#EEE924"/>
</svg>
